<svg xmlns="http://www.w3.org/2000/svg" xml:space="preserve" data-id="lg_LJ2anM7qhjnq4noKkw" data-version="1" viewBox="483 -2.5 534 223"><g data-padding="20"><path fill="#0191da" d="M599.152 39.741q4.138 0 6.995 5.831.53 0 1.492 1.376l1.376 7.842q-.741 1.28-5.62 1.28h-1.058q-3.926-.635-3.926-2.656 0-1.482-2.434-4.128-.318-.539-4.56-.539-4.032 0-9.757 2.127-4.022 4.234-5.293 6.572.741 18.127.53 22.679 0 .962 1.27.962h2.54q1.703.106 1.703.635v.106l.423 1.376-.211 5.936-.645.847-4.974.53h-.424l-2.126.634q-12.191-.423-12.191-.952-2.117 0-2.117-1.905-.212-1.915-.212-3.926t4.138-2.646q0-.847 2.857-.847l.318-.106v-.211l-.635-29.049q0-2.656-1.376-2.656h-.635q-1.28 0-4.243 1.174l-.212-.211v-.212q0-.212.847-.539v-.212q-1.059 0-1.059-5.936-.211 0-.317-1.906 4.243-3.28 8.9-3.28h2.656q1.587 0 5.407 1.058v.317q-.962 1.482-.962 2.117v.741q8.592-3.81 23.535-2.223m-27.769 16.011v.53q.53 1.058.53 2.222-.106.423-.318 4.35l.212 4.233h.106q.317 0 .846-9.853.212 0 .212-2.126-.106-.953-.53-.953h-.21q-.848.53-.848 1.597m-6.36 32.012-1.376.106v.212q0 .53 3.07.53h3.185l.74-.107q0-.529-5.619-.74m18.34-43.463v.212q.952 0 2.54-3.08v-.528h-.106q-2.752.846-2.434 3.396m13.672 3.387h.53q.529-.106 2.01-2.54v-.106q0-.212-.423-.212-1.8.847-1.8 2.223-.105 0-.317.635m-24.064 4.243-.318-1.799h-.423l-.53 2.223q0 .529.636 1.058h.106q.317 0 .529-1.482m14.414-9.968.529 2.126h.856v-2.232l-.317-.317h-.328q-.74.106-.74.423m-20.986 44.097h-2.117l-.211.212.106.221h5.83v-.327Zm-4.031-44.203q.846.847 1.809.847l.105-.212v-.74l-.423-.53q-1.491.212-1.491.635m10.709 44.954.317.317h1.588l.423-.423q0-.212-.529-.433-1.8.221-1.8.539m30.531-42.086h-.317v.211q.846.847 1.481.847h.318v-.212q-.847-.846-1.482-.846m-35.091-4.032-1.27-.953h-.318v.424l.635.74h.953Zm-4.445 5.302v.211h.317q1.164 0 1.27-.423l-.211-.318h-.212q-.953 0-1.164.53m27.769-4.985h-.635l-1.27.106v.106l.211.318h1.059q.74 0 .846-.424Zm-17.176 34.14h-.211l-.424.317v.846h.424l.423-.317v-.635Zm-12.931 12.296v-.741l-.424-.433-.212.433v.423l.212.318Zm15.481-40.71-.635-.106-.423.106v.317l.423.318h.318l.317-.318Zm16.107-5.831v.211h.741l.424-.317-.318-.318q-.847.212-.847.424m7.428 0h-.433l-.211.211v.106l.211.318h.433l.212-.318v-.106Zm-25.873-.847-.317-.212-.53.212v.423h.53Zm-.317 1.693h-.318l-.423.318v.212l.211.211.53-.423Zm25.44 8.804v.212h.212l.423-.317v-.318h-.106q-.529.318-.529.423m-3.281-9.333h-.318l-.423.318v.106h.53l.21-.212Zm-22.265 36.679v-.423h-.212v.423Zm50.986-46.214 13.154-.318q1.693 0 7.1 1.482 6.149 5.83 7.313 9.112 2.329 2.444 3.714 9.65 1.694 1.694 1.694 7.525l.106 2.656-.424 10.488q0 3.185 3.916 7.842 3.609 3.502 4.667 3.502v.212q0 1.27-3.705 4.031-2.761 2.752-3.502 2.752h-.106q-1.693-.212-8.583-6.254-12.508 4.878-12.614 4.984-4.137 1.27-9.227 1.27h-.53q-5.725-.952-9.756-4.455-.741-.635-3.07-5.292-1.905-2.338-1.905-5.725v-3.079q0-2.964 1.588-5.513 1.376-4.34 4.772-8.266 1.694-2.01 3.387-2.54 5.514-2.973 10.921-2.973l4.773-.106h.635q4.022 0 5.725 1.164h.635q.53 0 .53-.423-1.165-4.984-3.82-9.535-2.33-3.926-8.69-3.926l-4.349-.635q-5.619 1.164-5.619 2.329-2.222 2.867-2.646 7.1-.211.54-3.82.54l-.635.211q-.423 0-1.058 1.8-2.973-.424-2.973-1.27.221-.636.75-7.64 1.694-4.87 8.054-9.007 2.963-1.693 3.598-1.693m12.403 1.8h-.53l-.21.317.317.423h.644l.106-.212Zm7.534.846h-.212v.212q.847.846 1.482.846h.106v-.211q-.847-.847-1.376-.847m-16.963.529v.318q.105.317 1.058.317t2.656-.635v-.423h-.433q-2.329 0-3.281.423m-9.545 3.397v.211h.105q.963 0 2.868-2.02v-.318h-.106q-1.059 0-2.867 2.127m15.587-.741h-.847l-.529.423.318.53h1.376l.317-.318Zm-16.222 8.794-.212-.212-.318.212v1.588h.106q.424-.106.424-.741Zm38.266 8.265h-.106v.212q.221.856.433.856l.106-.538q-.212-.53-.433-.53m-2.329 3.714h-.105l-.318.212v.318q.423 1.587.847 1.587h.211q0-1.376-.635-2.117m-31.06.635h-.105l-1.164.53v.529h.211q.741 0 1.059-.847Zm-1.27 10.075q.742 6.36 1.8 6.36l1.058 1.376v.106l-.952-.106v.317q2.02 2.752 8.275 5.09.74.424 2.117.635 1.905 0 14.625-6.254.847-.53.847-1.164v-.53q-.953-4.349-1.588-10.18l-.212-.105q0-1.165-2.328-1.905-7.852-2.233-10.71-2.233-8.053 1.81-11.026 5.408-1.905 1.905-1.905 3.185m31.906-6.784v-.106l-.317-.211v.317Zm.423 2.329v-.424h-.635v.424l.318.317Zm-3.28 2.222h-.107l-.317.318.317.423.424-.106v-.317Zm3.704.318h-.318v.106q.212 4.031.847 4.031l.212-.211V70.8q0-2.223-.741-3.714m-3.705 3.396h-.423l-.106.106v.635l.318.424h.105l.424-.424v-.635Zm8.583 9.969h-.317v.635q.423 1.376.952 1.376h.318v-.318q-.424-1.693-.953-1.693m-38.796.317h-.211l-.212.212v.106l.212.211h.529v-.211Zm36.044 1.376h-.539l-.317.318q.317.74.856.952h.106l.423-.423v-.212Zm-15.905 1.482v.212h.424q1.481 0 3.925-1.27v-.106h-.423q-3.608.423-3.926 1.164m18.128.317h-.423l-.212.424v.212l.423.423h.424l.317-.212v-.211Zm-25.229.847h-1.376l-.317.318q.211.529.846.529 1.165-.212 1.165-.53v-.105ZM621.1 86.273h-.318l-.317.433q.423.953 5.301 2.434 1.588.741 4.234.741v-.106q0-.317-4.022-1.164-2.338-.635-4.878-2.338m71.125-82.364q2.338 0 3.82 1.27-1.27 3.397-1.693 10.71l-.963 9.756q0 .741 4.244.741 12.508 0 12.508 1.164.53 0 1.27.635-1.058 1.376-1.058 2.011v.318l.317 2.126-1.376 4.667q0 .74 1.588 2.117v.212q-2.54.846-4.128.846-1.703-.106-1.703-.529v-.212l.953-.105h.75l.424-.424V39l-.424-.105-7.11.105-5.822-.105q-.538 0-1.174 5.936h-.105l-1.482-1.693-.318 1.164v.635q.106 2.964.741 3.175.424 0 .741-1.905v-.74h.318l.105.317-.74 10.18q1.27 21.938 2.232 21.938.53 3.396 2.646 3.396 1.164.741 2.858.741h1.914l6.36-.317q.212 0 .741 5.619.212 1.693-.692 2.492-.895.79-3.022.79l-8.16.21q-6.677 0-11.237-3.704-2.964-1.068-2.964-6.36-.212-2.867-.74-16.963l1.27-14.414.317-6.254v-.856q-.741-4.446-2.55-4.446h-6.89q-1.587 0-3.175.741-1.058-.106-2.655-2.867l2.126-9.43q0-.423 12.826-.529 0-1.385 1.482-3.502.423-16.54 1.164-16.54V5.39q0-.212-.529-.212v-.317q0-.318 6.995-.953m-3.81 3.08-.212-.212h-.106v.635h.318Zm5.407 0h-1.068l-.423.423v.211l.317 2.435h.212q1.28-1.27 1.28-2.223v-.423Zm-4.878 4.974v-1.059l-.317-.317q-.212 1.058-.212 2.761v.424h.212Zm.318 3.396h-.212l-.423 10.498v.106l.317.317h.212q.74 0 .74-2.655V21.19l-.211-5.196q-.212-.635-.423-.635m-18.34 12.191q0 .741.953.741h1.587q4.35 0 8.064-.423v-.212q0-.529-5.196-.529h-4.455q-.953 0-.953.423m34.13-.423h-1.06l-1.375.53h-3.08v.317q2.339.635 4.032.635h2.435q.221 0 .221-.318-.221-1.164-1.174-1.164m3.08 1.058h-1.165l-.318.212v.212l.318.106q1.058 0 1.164-.424Zm-34.351 1.376h-1.164l-.212.212v.635q0 1.068 7.1 1.068 3.61 0 3.61-.53 0-1.279-9.334-1.385m22.16.953h-.742l-.317.327v.106q0 .53 3.81.635l1.809-.106 2.434.423h.424q.74 0 .74-.635h-.105Zm12.084 2.338h-1.376l-.423.423v.106l.423.318h.53q.952 0 1.164-.635Zm-33.503.423h-.953l-.423.318q0 .423.53.423l2.655.106 2.857-.106.106-.106v-.21q-1.27-.424-4.772-.424m7.534 2.329-.212-.318-8.698-.317v.212q0 .74 8.053.74l.857-.211Zm14.943 0h-.53v.317q.106.212 3.714 1.068h.212v-.22q-1.703-1.165-3.396-1.165m5.407 1.058q2.858.963 5.09.963l.423-.424v-.644l-.317-.318h-2.338q-2.858 0-2.858.423m-14.731 3.82v.847l.317.318q.424-.106.424-.741v-.424l-.212-.74h-.106q-.423.105-.423.74m3.916 2.223v-.318l-.53-.423v.318l.424.423Zm-3.175.106-.212-.212h-.212l-.105.539v.53l.105.634h.424Zm.212 7.957-.212-.847h-.318v.847l.318.423h.212Zm-5.302 12.614.317 2.964-.105 3.714.105 1.058h.318q.635 0 .635-4.984V63.7q0-4.878-.423-4.878-.741 0-.847 4.56m6.89 8.372h-.213l-.105.74v.847q0 .75.423.856h.212q.423-.105.423-.75-.106-1.693-.74-1.693m.846 4.56-.423 1.165q0 2.434 1.058 3.079l.212-.433v-.953q-.106-2.646-.847-2.858m-3.926.953-.212-.212h-.317v1.588l.212.635h.105l.212-.212Zm2.867 6.466v.74q.106.424.741.847h.741v-.211q0-1.165-1.482-1.376m11.768 2.117h.423q3.917-.635 3.917-1.376l-.212-.212q-4.128 1.058-4.128 1.588m-12.932.423-1.491-1.905h-.212v.423q.318 2.656 2.338 2.656h1.059l.211-.318v-.105q0-.212-1.905-.751m53.21-50.352q4.454 0 10.815 3.82 5.407 4.032 5.407 5.514 4.243 8.9 4.243 10.709l.106.847q-1.597 3.704-1.597 5.09l-.635.106h-9.006q-1.27 0-3.08.317-15.26-1.28-21.408-1.28h-2.232q-1.27 1.915-1.27 2.762.74 1.164.74 3.704 0 4.032 1.28 4.773l.106.529v.106l-.635-.318v.318l.953 1.058q0 1.386 1.905 3.503 3.502 6.148 7.63 7.63 3.502 1.164 7.957 1.164.741 0 3.07-1.376 1.905-.423 8.053-6.89v-.317q0-.211-1.482-.423l-.211-.53q2.434-4.666 5.83-6.148.953.953 3.926 2.964 2.329 3.608 6.255 8.486v.424q-3.397 4.455-4.879 4.455h-.423q0-2.338-2.867-2.656-.53 0-4.657 3.502-2.444 1.906-8.381 3.599-6.89 1.386-9.747 1.386l-6.043-2.127q-5.09 0-9.333-5.513-1.8-1.905-2.964-4.551 0-.857-2.338-8.804-.74-3.07-.74-5.937v-.106q0-14.096 8.486-24.7 1.058-2.646 4.869-3.916 2.55-.75 6.148-1.174.953-.423 6.148 0m-9.535 2.021-.212.212v.106h.212q1.694 0 6.36-1.165.953-.106.953-.538l-.318-.318h-.106q-3.079 0-6.889 1.703m-4.455 2.011v.106l.318.212h.106q2.116-.53 2.116-1.059v-.635l-.423-.423h-.212q-1.905.635-1.905 1.799m16.329-1.058H741.2v.211q0 .424 4.349.635h.106v-.423q0-.212-1.27-.423m-7.534 1.587v.106q0 .423 4.349 1.059l.211-.106v-.424q-.846-1.164-2.857-1.164h-.318q-1.385.106-1.385.53m6.475.634v.106q6.033 3.503 6.466 3.503h.106l1.058-.424.635.212.106-.212v-.106q-.423-.317-1.799-.635l-2.126-.962q-.847-1.8-3.387-1.8h-.318q-.74.107-.74.318m-12.625 3.08q1.068-.847 4.243-1.81v-.211l-.105-.212h-1.059q-3.079.847-3.079 2.232m-5.61 6.995v.318q0 1.164 19.293 2.646l1.058.318 1.376-.106q4.243 1.385 5.725 1.385 0 .318.635.53.635-.963.635-1.81v-2.01q0-1.376-5.302-6.149-2.434-2.434-5.513-2.752l-3.599-.644q-8.804 1.809-11.555 4.349-1.165 2.232-2.752 3.925m1.164-6.36v.212h.212q1.376-.317 1.376-.74v-.107h-.53q-.529 0-1.058.635m25.334 1.482q.212.847.953.847h.212l.211-.318v-.635l-.423-.529q-.953 0-.953.635m-26.931.53h-.424l-.211.317v.106h.211l.424-.318Zm29.79 1.058-.213-.212h-.423q1.164 3.502 1.694 3.82h.433l.317-.212q-.856-3.396-1.809-3.396m-29.25 1.703q.635-.106.635-.857v-.105q-.636.211-.636.962m32.965 2.858h-.317l-.318.211v.741l.318.423q.423-.105.423-.74v-.424Zm-34.138 1.481v.424l.211.211h.212q.75-.317 1.28-1.164v-.317h-.53q-.644 0-1.173.846m-4.34-.635q-.847.847-1.491 4.244h.211q.645 0 1.915-3.715-.212-.529-.635-.529m10.806 1.27v.318q2.02 1.385 7.322 1.385h.952l1.376-.105v-.424q-4.349-.962-9.65-1.174m19.407 3.08v-.318h-.318v.317Zm-20.466.529v.211q2.127.53 11.239 1.059v.211l-2.223.318q0 .317 2.752.317 4.455 0 4.455-.423 0-1.058-16.223-1.693m-10.276.952-.423-.212h-.54v.636q0 .635.318.635.54 0 .645-1.059m8.16.106v-.106l-.53.106v.635h.53Zm-3.397.74v.107h.106l1.809-.212v-.212l-.318-.423h-.318q-.962 0-1.28.74m25.768.213q0 .423 1.905.423l.953-.106v-.212q0-.423-2.011-.423-.847.212-.847.318m-31.492 2.761v.423q-.106.318-.106 1.482v.424q0 1.905 1.068 3.396h.106q0-5.09-1.068-5.725m2.126 9.43-.212-.212h-.317v.212l.317.211h.212Zm.53 1.587-.106.116v.211q.423 1.694 1.27 1.694v-.318q0-.846-1.165-1.703m34.553.962.211.318h.54q.634 0 .74-.423l-.423-.424h-.106q-.75 0-.962.53m-2.435 6.148.212.106h.106q1.164 0 1.482-1.386v-.212q-1.165 0-1.8 1.492m7.419-.212.106.106h.317q.635-.423.635-1.174h-.317q-.741.433-.741 1.068m3.714-1.068h-.106v.212q.318 1.28.953 1.28h.106l.211-.212v-.106q-.211-1.174-1.164-1.174m-6.148 2.232.317.212q1.588-.53 1.588-1.376v-.212h-.106q-1.482 0-1.8 1.376m-8.265 2.329h.212q.847-.318.953-1.059l-.106-.105q-1.059.635-1.059 1.164m6.255.53h.423q1.058-.954 1.058-1.377h-.106q-1.375.423-1.375 1.376m-30.107.953h-.318v.423q.212.539 1.8 1.174l.423.317q-1.165-1.809-1.905-1.914m7.418.423h-.106v.106q0 .433 2.223.962l.106-.106v-.211q-1.376-.751-2.223-.751m6.254 1.491v-.317h-.317v.317Zm11.027 1.27q1.058 0 1.693-1.587h-.317q-1.376.74-1.376 1.587m-7.428 1.059-2.223-.212h-.423q-.953 0-1.059.424v.211l.424.318h1.905q3.29 0 7.736-1.164-.212-.636-1.27-.636h-.53q-2.54 0-4.56 1.059M821.87 35.18q1.164.211 1.164.317l-.423.741v.106h.212l5.407-.106q9.228 0 12.297 4.667 2.444 3.184 2.656 3.714l.423.106q1.058 0 11.98-5.726 1.481-.74 2.434-.74 4.349 0 9.006 3.28 9.015 7.102 9.015 12.086.953 2.02 3.282 21.736v2.857q0 .953.538 1.165h.424q.846 0 3.387-.847 1.693 0 1.693 6.254.212 3.185.212 4.773h-1.482q-4.455.74-7.842.74l-3.396-.423-6.149.212h-1.058q-.212 0-.212-.847l-1.376-1.376v-.106l.318-1.058v-.212l-.53-2.867V82.25q0-1.376 2.117-1.376 3.82.423 3.185-2.867-.106-8.265.635-12.403v-.212l-.211-6.36q0-1.693-2.868-3.925l-.847-.212h-.74l-.847.423q-.212 0-.212-.952-2.434-3.176-7.842-3.176-6.889.636-8.275 4.128-.211.962-.423 4.984l.212 2.444v7.63l-.106 3.07q0 4.772 2.656 5.513 1.164.212 1.164.741-1.164 5.302-1.482 5.831l-2.656.53-9.006-.742-1.058.212q-1.81 0-1.81-5.407V79.7q0-.635 3.186-1.587.846 0 .846-.847-.529-2.646-.529-5.937l.212-11.662q-.635-2.328-.635-3.704.106-2.656.74-2.656l.953.53h.106v-.212q0-2.329-7.207-6.678-1.905-.74-3.82-.74-2.963 0-6.677 2.645l-.106.54v8.582l.318 22.15.423.433h.423q.327 0 .433-.75h.212q2.858 0 3.493 1.49v.847l.106 2.54q.211 4.35-2.223 4.35-.635.211-5.725.423l-13.779-.847q-1.068 0-2.02-6.466v-.106q0-.952 4.349-2.232 0-.74 4.243-1.376.74-.106.74-1.058l.742-24.806.211-5.83q0-.953-2.01-.953-2.021 0-4.985.53-1.799-.953-1.799-2.012.847-.53.847-1.703v-.847q-.53-2.752-1.28-2.752l-.106-.105v-.212q.645-.423 1.492-2.02 7.1-.953 15.26-1.482m-4.56 9.65v5.302q0 1.588-.636 3.175l.741 1.059-.212 1.703v1.058l.212.212h.106q.856 0 .962-11.556v-.106q0-1.27-.74-1.693-.434.105-.434.846m-9.747-2.02q0 1.068 1.905 1.068 2.444 0 4.984-1.597v-.318h-.423q-6.466 0-6.466.847m17.599-1.27v.106l5.513-.636q2.329 0 4.763 2.127h.317v-.433q-.635-2.223-2.222-2.223h-.953q-7.312 0-7.418 1.059m35.293-1.8q-.635.318-.635.53t1.809.74q.952 1.376 2.328 1.376h2.011v-.317q0-1.059-5.407-2.329Zm-49.082 43.992h-.423l-.317.317q0 1.376 3.714.53.423.74 1.164.74 2.656-.105 5.513-.529v-.423l-2.752-.106q-2.655.212-6.36-.212Zm16.435-40.595q0 .317 2.973 1.058 2.01 1.059 3.493 1.059h.105l.212-.318q-2.434-2.126-5.407-2.126h-.635q-.741.106-.741.327m36.784 5.398h-2.01l-.318.317q2.328 2.55 4.34 2.55l.317-.212v-.529q-.741-.952-2.329-2.126m-6.677-3.81v.211q.317.53.635.53 4.349 0 4.666-.53-.317-.952-3.396-.952h-.212q-1.587 0-1.693.74m14.837 20.14-.53-.53h-.635l-.211.423.317 4.032v.317l.318.424h.212l.529-.53Zm-65.506 16.857-.106-.106h-.318q0 .953-.846 1.8.74 3.608 1.587 3.608h.318Zm33.917-18.657-.212.952v3.926l.212 1.905h.317q.424-.952.424-2.655-.212-4.128-.741-4.128m-18.974-24.488v.106l.423.212 6.89-1.27v-.212h-3.176q-4.137 0-4.137 1.164m22.265 7.842v.953l.423.317q1.27 0 3.281-1.905h-2.646q-.74 0-1.058.635m-24.065 2.434h-.211q-.212 1.703-.212 3.609v1.375l.212.53q.74 0 .74-2.858v-.847q0-1.809-.529-1.809m47.812-2.434h-.318v.635q.423 1.27 2.011 2.55v.317h.74v-.211q0-1.174-2.433-3.291m-16.435-3.281v.212h.106q.635 0 3.608-2.444v-.424q-3.714 1.165-3.714 2.656m20.668 40.171v.318h1.386q3.07 0 3.07-.635l-.424-.212h-.212q-3.82 0-3.82.53m-4.233 1.587v.212h2.751q1.059 0 1.27-.53-.105-.423-.846-.423h-1.588q-.529 0-1.587.741m3.704-27.663 1.27 1.905h.433v-1.587q0-.635-.327-.847h-.953q-.211 0-.423.529M817.31 77.267h-2.222q.105 1.693.423 1.693h.317q1.376 0 1.482-1.693m-5.08-37.526h-2.338l-2.011.212v.318l.317.211q4.35 0 4.35-.423Zm-3.503 41.346.106 1.587h.212q.74-1.058 2.117-1.587v-.318l-.953-.211h-1.058q-.424 0-.424.529m13.885 2.857-.423.318q0 .953 2.02 1.058l.53-.423v-.423q0-.53-2.127-.53m-1.588-4.454-2.117-1.8v.212q0 2.117 1.27 2.117h.636q.211 0 .211-.53m17.387-34.552h-.106v.106q0 1.058 1.905 1.905v-1.164q0-.212-1.799-.847m31.906 7.63h-.211v.212q.846 2.867 1.587 2.867v-.211q0-1.492-1.376-2.868m-36.784-13.99h-.635v.318q2.434.529 3.07.529h.21v-.212q0-.635-2.645-.635m4.56 3.81h-.211v.424q.952 1.491 1.693 1.915h.318v-.106q-.53-1.27-1.8-2.233m-13.566 40.605h-.857l-2.752.212v.423h2.011l1.598-.212Zm24.276-38.584.106.212h.635q1.376-.106 1.376-.953l-.318-.106q-1.588.318-1.8.847m26.711 35.187v.212l.318.318h.317l.424-.53v-.529l-.212-.423h-.423q-.424.317-.424.952M815.3 81.828h-.847l-.846.211v.318l.846.106h.847l.635-.106v-.318Zm63.072 1.376.106.105h.423q.53 0 .741-.317v-.106q0-.847-.317-.847-.424 0-.953 1.165m-66.247-45.791.318.423q2.116-.211 2.116-.635l-.529-.106q-1.905.106-1.905.318m69.961 43.568h-.212l-.423.317v1.27l.423.424q.318 0 .318-1.694Zm-60.32 6.043v.211l.318.212q.952-.423 1.481-1.068v-.212q-.952 0-1.799.857m22.794-34.562-.105.317q.211.847.423.847h.106l.635-.53v-.317q-.106-.317-1.059-.317m-22.476-7.842v.211h.423q1.376-.105 1.376-.529v-.317h-.847q-.952.211-.952.635m22.9 34.023h-.741l-.423.529.317.318h.741l.423-.424v-.106Zm15.049-37.314h-.635v.318q0 .317 1.058.317h.423l.212-.212q-.106-.423-1.058-.423m-39.537 15.8h-.106l-.211.21v.636l.423.423h.212l.211-.211v-.53Zm.635-20.784h-.74l-.212.317v.327l.317.318q.74 0 .74-.75Zm15.482 6.572-.212.22q0 1.06.953 1.06v-.212q0-.741-.741-1.068m4.868 7.428h-.211q0 .846.847.846h.211v-.423q-.106-.423-.847-.423m1.069 32.859h-.645l-.318.423v.212l.635.105.645-.105v-.212Zm-16.752-1.8-.318-.317h-.74v.635l.74.106Zm-16.011 3.493-.318-.317h-.211v.74l.211.318h.318Zm62.437-11.45h-.212l-.318.317v.433l.212.212h.318ZM820.6 38.365h-.423l-.212.318v.212l.212.211h.211l.424-.211Zm52.15 38.373-.317-.424-.423.53v.105l.423.424.318-.424Zm-50.245-34.986v-.211l-.423-.212-.212.423.212.212h.106Zm22.371 34.668h-.212l-.211.318v.317l.423.106.106-.423Zm-27.028-18.233-.327-.212h-.106v.423l.327.318h.106Zm-.75-17.176h-.424l-.212.318v.212h.212l.424-.318Zm3.29 42.722h.212v-.106q-.106 0-.212.106m83.528-43.674 1.915.212 2.963-.212q1.376 6.678-.105 6.89-1.376 0 3.82 12.19 2.328 5.831 3.704 8.477 3.079 7.534 4.032 7.534.317 0 1.058 1.27l.106.212h1.164q1.174 0 3.926-9.228 10.286-19.292 5.83-19.397-.211 0-.528.105.635-4.233.317-7.206l.53-.424q13.778.318 13.778 1.059.53 0 .53 5.407-.742 3.185-1.906 3.185-1.164-.106-1.27 0t.529.318h-.74q-4.138 6.995-4.138 9.112-1.27 5.195-3.281 7.206-3.291 9.545-5.09 13.144-.741.856-1.482 5.513l-4.56 7.428q-3.292 7.419-9.017 14.202l-5.186 3.493q-3.185.856-4.984.856-7.852 0-7.852-1.597-.846-.529-1.375-2.963-1.588-1.588-3.917-11.133V95.5q0-1.058 2.117-1.058 1.8 0 6.36-1.915 1.376 0 3.82 9.757.741 2.223 1.164 2.223h.847q.847-.318 1.694-2.54.635 0 4.243-5.514 1.588-3.387 3.387-6.254l.317-1.27v-2.117q-.105-1.597-2.222-4.773-2.117-3.608-3.387-6.783-4.984-13.355-11.344-24.805-.424-.424-.953-.424l-6.466.318-.327-.318-.212-3.502-.211-4.561 1.914-.847Zm31.81 3.079-1.28-.327 2.445 1.068 1.481-.318h.212l1.8.212v-.212q0-.423-2.118-.644h-1.587q-.953 0-.953.22m9.006-.326h-1.587l-.212.221v.106q.212.423.635.53l1.905-.213v-.317q-.106-.327-.74-.327m-51.728 4.137-.212.106v.847l.53.423h1.375q2.223-.106 2.223-.635 0-.423-3.916-.74m10.064 1.163h-.317l-.318.212q0 1.28 1.482 3.29h.106v-1.163q0-1.81-.953-2.339m38.584-1.587v.212l.433.423q3.705-.847 3.705-1.376l-.318-.318h-.423q-3.07.318-3.397 1.059m-1.164-.53h-.317l-.318.212v.53q.318.635 1.27.635l.106-.106v-.53Zm-.74 4.138v-.53h-.53v.53Zm-.636 4.234.212-1.694h-.318q-4.137 8.054-4.56 8.371v.75q0 .424.952 1.483l-.74 2.116h.21q1.492-2.222 4.244-11.026m-15.26 28.202v.529h.529q1.693 0 4.34-10.18 0-.212 1.068-1.164 0-.847.635-1.165v-.106l-.318-.846q.53-1.059 0-.106-.212.423-.856 1.587-1.588 2.858-2.858 5.196-.423 1.482-2.54 6.255m-11.45-16.011h-.106v.211q2.223 6.149 2.646 6.149h.106v-.212q-2.011-6.148-2.646-6.148m18.55 9.439h.107q1.693 0 2.752-8.054h-.106q-.424 0-1.059 2.646-1.482 3.608-1.693 5.408m-18.657-4.667-.423-.53-.318.318v.318l.318.212.423-.212Zm2.858 2.117h-.106l-.318.317v.212l.635.539q.318 0 .318-.318-.212-.433-.53-.75m7.63 16.54v.212h.54q.74 0 2.963-5.302v-.106q-1.482 0-3.502 5.196m-4.022-3.281v.106h.106q.846 0 .846-.75v-.636h-.423q-.53.212-.53 1.28m3.282 7.101h-.212l-.847 1.27.106.318q.953-.741.953-1.588m-23.853 2.117h-.53l-.317.317q.847 1.165.953 2.117l.856.856.424-.105v-.54q0-1.587-1.386-2.645m13.365 6.783v.106q1.058 0 2.117-2.646h-.212q-1.27.635-1.905 2.54m-11.768-1.587h-.211v.317q0 1.164.846 1.694l.318-.212v-.212q0-.846-.953-1.587m14.308 3.81-.952 1.28.211.211h.106q2.858-1.491 3.387-2.973-.423-.423-.847-.423h-.423q-.953 0-1.482 1.905m-11.45.221h-.635v.318l.423.529h.953l.317-.212q0-.529-1.058-.635m5.09 2.011 1.905 1.376h.424q.423-.106.423-.847v-.529q-.106-.317-.847-.317h-.952q-.953 0-.953.317m-2.01.953h-1.704l-.106.317q.318.741 1.386.741h1.482l.211-.317v-.106q0-.53-1.27-.635M507.83 152.289l13.143-.317q1.694 0 7.101 1.481 6.148 5.831 7.313 9.112 2.338 2.444 3.714 9.651 1.693 1.694 1.693 7.524l.106 2.646-.423 10.498q0 3.185 3.925 7.842 3.6 3.502 4.667 3.502v.212q0 1.27-3.714 4.031-2.752 2.752-3.502 2.752h-.106q-1.694-.211-8.583-6.254-12.508 4.878-12.614 4.984-4.138 1.27-9.218 1.27h-.539q-5.715-.952-9.747-4.455-.74-.635-3.079-5.292-1.905-2.338-1.905-5.725v-3.079q0-2.963 1.588-5.513 1.385-4.34 4.772-8.265 1.693-2.011 3.397-2.54 5.513-2.974 10.91-2.974l4.773-.106h.635q4.032 0 5.725 1.165h.635q.53 0 .53-.424-1.165-4.984-3.81-9.535-2.339-3.926-8.699-3.926l-4.34-.635q-5.619 1.164-5.619 2.329-2.232 2.867-2.655 7.1-.212.53-3.81.53l-.636.221q-.423 0-1.068 1.8-2.963-.424-2.963-1.27.212-.645.74-7.64 1.694-4.87 8.054-9.006 2.973-1.694 3.609-1.694m12.402 1.8h-.529l-.212.317.318.423h.635l.106-.211Zm7.525.846h-.212v.212q.847.846 1.482.846h.105v-.211q-.846-.847-1.375-.847m-16.964.53v.317q.106.317 1.068.317.953 0 2.646-.635v-.423h-.423q-2.329 0-3.29.423m-9.536 3.397v.212h.106q.952 0 2.857-2.021v-.318h-.106q-1.058 0-2.857 2.127m15.578-.741h-.847l-.53.423.318.53h1.376l.327-.318Zm-16.213 8.794-.212-.211-.318.211v1.588h.106q.424-.106.424-.74Zm38.266 8.266h-.106v.211q.212.847.424.847l.105-.53q-.211-.528-.423-.528m-2.328 3.714h-.106l-.318.211v.318q.424 1.588.847 1.588h.212q0-1.376-.635-2.117m-31.06.635h-.106l-1.174.529v.53h.212q.75 0 1.068-.848Zm-1.28 10.074q.741 6.36 1.81 6.36l1.058 1.376v.106l-.953-.106v.317q2.011 2.752 8.265 5.09.741.424 2.117.635 1.915 0 14.635-6.254.847-.529.847-1.164v-.53q-.953-4.348-1.588-10.18l-.212-.105q0-1.164-2.338-1.905-7.842-2.232-10.709-2.232-8.053 1.808-11.017 5.407-1.915 1.905-1.915 3.185m31.916-6.784v-.105l-.327-.212v.317Zm.424 2.329v-.423h-.645v.423l.327.317Zm-3.291 2.223h-.106l-.317.317.317.423.423-.105v-.318Zm3.714.317h-.318v.106q.212 4.032.847 4.032l.212-.212v-.212q0-2.222-.741-3.714m-3.714 3.397h-.423l-.106.106v.635l.317.423h.106l.423-.423v-.635Zm8.583 9.968h-.318v.635q.423 1.376.962 1.376h.318v-.318q-.424-1.693-.962-1.693m-38.796.318h-.212l-.211.211v.106l.211.212h.53v-.212Zm36.044 1.375h-.53l-.317.318q.318.74.847.953h.106l.423-.424v-.212Zm-15.905 1.482v.212h.433q1.481 0 3.916-1.27v-.106h-.424q-3.608.423-3.925 1.164m18.127.318h-.423l-.212.423v.212l.424.423h.423l.318-.212v-.211Zm-25.228.846h-1.376l-.318.318q.212.53.847.53 1.164-.212 1.164-.53v-.106Zm-12.615 1.482h-.317l-.318.433q.424.953 5.302 2.435 1.588.74 4.243.74v-.105q0-.318-4.031-1.165-2.329-.635-4.879-2.338m56.183-49.716 7.207 2.444q.105 1.587 1.28 3.387l.211 1.174q-.953 6.783-.53 28.192 0 3.079 2.541 4.031l.74 1.694q0 .635 6.996 1.164h.423q2.233 0 5.514-4.772 2.55-2.54 3.396-4.022h.53v-.635l-.212-.53q.635-.962.952-2.867h.106v-.953l1.905-20.138v-1.915l-.211-1.058v-.106q1.164-.847 1.164-2.646 0-1.165.75-1.27l2.435 1.27h2.328q4.244 0 6.043 1.799v.423q-1.164 0-1.164.424l1.058 2.444h.318q.211-1.598.423-1.598.433.53.539 1.81l-1.174 13.143.212.212v.105q-.741 2.223-1.482 12.827v3.069q0 6.899.635 6.899h.423q1.915 0 6.149-.857.423.106 1.914 1.28-.423 9.536-1.28 9.536l-1.164-.953-3.175.212-11.767-.212q-.953 0-1.915-4.35-.635-.528-.635-1.27l.211-.952h-.317q-.847 0-6.254 2.858-.318.74-7.419 3.079-1.587.847-4.243 1.693-1.588-.952-5.08-1.905-6.678-6.572-8.17-11.556-2.751-3.925-2.751-16.751l1.164-12.403v-.318q0-.211-7.207-1.376-.635-.952-.635-5.301 0-2.858.953-2.858 0-1.174 8.265-1.597m-1.482 1.491-.317-.212-.424.212v.212h.741Zm2.867.635h-.538l-.53.212v.106q0 .106 1.598.952 0 1.376.211 1.376h.635q2.54 0 3.07-.847v-.211q0-.741-3.176-1.164 0-.212-1.27-.424m-7.745 3.281v-.317h-1.376v.317l.211.106h.318Zm.423 1.165-.423-.424h-.847v.212q.106.645 1.164.645l.106-.212Zm39.017-2.964h-.212q0 1.058 1.694 1.058h.635l.317-.211v-.106q0-.53-2.434-.741m-36.679 3.82q0 .635 3.387 1.8h1.059q.433 0 .433-.742-1.174-1.164-2.868-1.481h-.847q-1.058 0-1.164.423m-.847-.318h-.529l-.539.212v.318l.106.105v.106q.962-.211.962-.529Zm8.795 1.165v2.01l.317.212q.636-.317.636-1.27v-1.164q0-.635-.318-.847h-.212q-.423.106-.423 1.059m-11.133-.424h-.529l-.423.424.211.211h.847l.318-.211Zm41.134-.846h-.317l-.318.317v.212q0 .423.741.423h.106q.74 0 .847-.423v-.212q-.106-.317-1.059-.317m-34.668 6.042v.847l1.598-.53v-2.232l-.222-.317q-.529 0-1.376 2.232m35.832 5.61v.423h.106q1.059 0 1.059-2.434-.106-1.059-.318-1.059-.317 0-.847 3.07m4.244 4.243v-.953h-.318l-.212.424q.212.529.424.529Zm-38.16 2.444v-.433l-.318-.106-.433.423v.222l.433.211Zm32.435 3.387.529.529q.529-.212.635-2.117l-.106-.211h-.212q-.846.635-.846 1.799m-30.32-.212v.741q0 1.376 1.377 2.117h.317q0-3.916-.635-3.916h-.423q-.635.317-.635 1.058m30.742 1.376h-.635l-.318.318v.952l.318.433q.635-.327.952-.962v-.423Zm-34.244 1.164h-.106l-.318.318v.433q0 4.128 4.455 12.932.847.529 1.164.529v-.53l-3.069-8.592q-1.386-4.878-2.126-5.09m36.36 2.974h-.21l-.424.423v.106l.423.317.318-.317Zm-11.873 5.195.106.212h.106q2.55-3.397 2.55-3.926v-.211h-.318q-.846 1.058-2.444 3.925m-18.974-3.714v.106q.317.635.847.635v-.106q0-.635-.847-.635m30.424.212h-.211v.635q0 1.703.529 4.35h.317q.424-1.588.424-3.08v-.74q0-1.165-1.059-1.165m-5.725 1.8v-.742l-.423-.529q-.635.847-.635 1.27l.53.327h.105Zm3.926.432-.317-.106h-.212v.741h.212l.317-.317Zm-25.334 3.281-.212-.317h-.106v.317l.212.318h.106Zm31.694-.211-1.058 1.587v.318h1.058l.424-.318v-.529q0-.953-.424-1.058m-9.862 1.799v.106h.211l.741-.635v-.424q-.952 0-.952.953m3.714.423-.53-.635-.317.318v1.28q0 7.418.741 7.418h.317q.741-.106.741-.635-.846-1.491-.952-7.746m-26.076.318-.423-.424h-.318v.424q.106.433.741.433Zm2.223.327h-.317v.106q0 1.164 3.714 3.387 4.233-1.694 4.233-2.117v-.106q-2.752 0-7.63-1.27m5.09 3.916v.212h1.27q4.138-.953 5.513-2.858v-.423h-.529q-.635 0-6.254 3.07m31.377-2.224h-.106l-3.29.424v.423l.635.106h.433q2.328-.106 2.328-.74Zm-.106 1.8h-.423v.635h.423l.318-.212v-.212q0-.211-.318-.211m-7.63 1.693h-.952l-.328.212v.317q.222.54 1.28.54h1.059l.317-.222v-.212q0-.529-1.376-.635m-25.652 1.068h-.856l-4.234-.433h-.212l-.423.433v.106q0 .953 5.937 2.117 1.799 0 7.1-2.656l.107-.106v-.317h-.741q-3.185.856-6.678.856m80.776-77.389.635-.106 4.657-.106q4.35.847 4.35 1.27.211 0 .423 3.08 1.164 1.375 1.164 1.799-.53 5.09-.953 20.774-.211 0-.211 1.068-.847.529-.847 1.164v1.693q0 2.117-1.058 4.879l-.106 1.481q0 .424 1.164.635v.741q-1.588 13.461-1.588 17.599 0 4.878-.635 4.878v.212q.635 0 .741 1.376l-.106.74v.424q0 2.02-1.27 9.757v2.434q5.292 1.164 5.292 3.079l-.529.53v.952l.53.847q-.847 2.222-6.043 2.222h-.635l-.53-.847h-1.164l-2.857.636-4.032-.106q-.423 0-.953-5.398l.212-3.397q-1.376 0-4.35 2.329-8.794 4.878-15.471 5.301-6.149-1.587-11.027-6.148-1.587-1.588-3.29-4.984-1.906-2.646-1.906-3.175v-.424h.318q.74.53 2.761 3.599l.53.106.105-.106v-1.376q0-2.117-2.232-5.09h-.53q-.634 0-.74 1.915h-.318l-.211-.53q.211-4.137.317-5.407h.635l.106.953h.212q.53-.212.53-1.059v-2.02l-.213-.318q-.317 0-.317.847l-.635.644q-.212 0-.318-.75 0-7.948 5.196-16.954 2.434-4.243 4.878-6.783 3.387-3.08 10.7-3.08h.962q11.229 0 18.34 5.831l.74.424h.318q.953-4.667 1.905-23.641.53-.847.847-.847-3.387-2.223-4.667-2.223-.952 0-1.164-7.312.212-.212 1.693-.318v-.423q-.105-.433-.846-.433-.53-.318-.53-.741 0-1.059 2.445-1.059v-.423l-.424-.423Zm1.588 4.455h-.847l-.106.318v.105h1.27v-.105Zm5.725 1.058h-.635l-.212.318v.106h1.588v-.318Zm-3.926 2.011.212.318q2.55-.106 2.55-.635l-.433-.318h-1.27q-.741 0-1.059.635m-1.8-.423h-.952l-.211.318v.211l.74.212q.635 0 .741-.423Zm-23.852 27.461h-.635l-.318.423v.53l.318.211h.53l.528-.423v-.318Zm5.62 1.164.21.424h4.668v-.424q-.636-.635-3.503-.74H637.9q-.318.105-.318.74m25.864-.211h-.53v-.53h.53Zm-39.325 2.328v.423l.212.106h.423q3.705-.952 3.705-2.222-.106-.424-1.059-.424h-.529q-1.588 0-2.752 2.117m22.785-1.058-1.482.106h-.212v.317q2.55 1.058 3.291 1.058h.106q0-1.058-1.703-1.481m10.392 1.164-.106-.635h-.424q0 1.058.424 1.058l.106-.106Zm-21.727 1.27h-.75l-.212.212.212.106h.433l.317-.212Zm-16.117 7.428v.318h.318q.635-.212 1.376-2.444 3.185-4.455 4.243-4.455l.424-.741h-.635q-.424 0-3.503 2.126-2.01 2.964-2.223 5.196m13.038-6.687h-1.164l-.212.327h1.059l.317-.221Zm4.35.539.211.106h.212l2.328-.318v-.221l-.74-.106q-2.012.106-2.012.539m5.725-.54h-.105l-.212.328.317.318h.635l.212-.318q-.212-.327-.847-.327m4.975.327-.212-.221h-.423l.423.433Zm2.126.423h-1.164q0 .424 3.07 1.27h.105v-.317q-.846-.953-2.01-.953m-29.578 20.668v1.588q0 1.482 4.031 8.592 2.964 1.588 6.36 1.588 7.313 0 14.202-3.502 2.858-4.34 4.984-4.34 1.165-1.174 2.54-7.957.847-1.905.847-3.916v-1.068q0-4.446-1.164-4.446-2.434-2.232-2.434-2.655l.423-.635q0-.424-3.079-1.27l-.635-.424.106-.212h1.597v-.105q0-1.059-11.556-1.165l-1.491-.317q-8.477.847-8.477 2.222-3.926 4.667-5.09 11.45-1.164 4.032-1.164 6.572m31.165-16.751h-.212l-.423.423v.847l.53.538h.317q.423-.115.423-.856 0-.635-.635-.952m-32.859 11.45q0 .317.318.317.74 0 1.058-2.117v-.635h-.318q-.529 0-1.058 2.435m33.706 16.01v.636q.635 0 .635.952h.211l.53-.529v-.847q-.424-.317-.424-1.058h-.317q-.635.106-.635.847m-7.948.846v.424h.106q1.058-.424 1.693-1.376v-.212l-.211-.212h-.212q-.741.318-1.376 1.376m-10.603 1.376v.318h1.27q7.004-.424 7.745-2.011v-.318h-.317q-8.17 1.376-8.698 2.011m24.276-1.587h-.106l-.106.846v1.376l.212.318h.211l.212-.318v-1.058q0-1.059-.423-1.164m-37.526.952h-.423v.318q0 .635 3.502.952v-.317q-2.444-.953-3.079-.953m3.08 1.694h-.645l-.318.211q0 1.165 6.254 2.338h.54l.21-.211v-.106q0-1.174-6.042-2.232m29.568.423h-.211l-.53.423v.212h.318l.423-.423Zm-16.742.847v.211l.318.212h.635q3.387-.212 3.387-.635l-.318-.212h-2.01q-2.012 0-2.012.424m22.573.211-.211-.317h-.53v.317l.212.212h.53Zm-29.674 2.868v.317l.106.318h1.376q1.694 0 4.984-.741v-.212l-3.079-.317q-3.387.211-3.387.635m31.166.211q.106.424 1.058.424h2.117l.74-.212v-.212q0-.317-1.27-.529-2.645.106-2.645.53m23.208-74.946 3.608-.529q3.704 0 5.83 3.81l.742 3.397q-.212 2.01-2.329 5.302-1.385 1.375-4.243 1.375-6.678 0-8.265-2.01-1.597-2.127-1.492-5.937-.423 0-.423-.212v-.212q3.185-4.984 6.572-4.984m-2.117 2.646v.106q3.608-.423 3.608-.952l-.539-.212q-3.069.53-3.069 1.058m1.8 3.08h.105l.635.105h.212q1.174 0 1.491-.847l-.106-.211h-1.28q-.846 0-1.058.952m7.736-.952h-.106l-.317.529v.423h.106l.317-.423Zm-2.646 3.492v.318h.424q.74 0 1.164-.74v-.318h-.212q-.74 0-1.376.74m-.74 1.906h-1.588l-.318.327v.211h1.905l.318-.211Zm-15.27 10.285.22-.211h.318q.847.74 2.117.74l1.376-.634q14.414 0 14.414.846l.105.741v1.81q.963 2.116.963 4.021v1.703q-1.28 17.272-1.703 27.98-.212.636-.424 2.223.106.433.953.433h.317q5.725 0 5.725 1.376l-.105.212v.635q1.28 2.54 1.28 8.054l.423 4.243-.318.212-4.667.211h-10.603q-11.873 0-11.873-1.905 0-1.174-.635-2.338.317-.74 1.058-1.164h.317q.424.423.963.423h.211q3.07 0 7.313-.53v-.21q-9.122-.636-9.122-1.483l-.105-.846v-1.174l-.212-2.752q0-1.058 7.948-1.058 1.068 0 1.068-4.773l1.27-27.875h-.212q-2.973 0-2.973-.433 0-.105.317-.317-6.36 0-6.36-1.482-.423-.106-.423-.847l.53-1.27q0-.423-.636-1.164.847-.847 1.164-3.397m1.915 1.906v.433h.53q2.751 0 2.751-.433l-.211-.424h-.318q-2.752 0-2.752.424m14.731-.424-.317-.317-.318.317.424.318h.211Zm-12.402 1.915h-1.905v.318q0 .423 1.481.423h4.984q1.588 0 1.588-.53v-.105q0-.53-6.148-.106m10.92.106h-1.481l-.953-.106v.212q.741 0 1.8 1.058h.211q.212 0 .212-.317h.212q.423 0 .529.952h.211l1.482-1.058v-.635Zm-1.905 5.937.53 1.587-.741 1.905q.423.953.74.953h.106l.212-.635v-.635q0-3.81 1.164-3.81l.318-.433v-.424l-.318-.317h-.635q-1.376 0-1.376 1.809m-3.29 10.064-.318 13.673q.106.75.318.75.317 0 .423-.962l-.106-1.587q.53-.53 1.164-4.234v-.645l-.211-1.482q.635-.529.635-.74-.424-1.165-.424-2.329v-.212q.424 0 1.059-11.873-.318-.847-.635-.847-1.588 0-1.905 10.488m5.196-9.324-.424.106v.635q0 .635.53.953h.317l.317-.423v-.53q-.211-.529-.74-.74m-.424 18.021-.106-.74h-.529q-.847 3.916-.847 5.82h.106q.53 0 1.376-4.339Zm-2.117 9.218v.741h.212q.53-.212.53-1.27v-.741h-.318q-.212 0-.424 1.27m.318 1.588h-.106l-.327.423v.539h.327l.423-.318v-.327Zm9.006 2.55h-.635l-.318.105q.635.53 2.329.635v-.317q0-.423-1.376-.423m-.212 4.455-1.27.317q.212 1.27 1.905 1.27h.318v-.317l-.212-.318q0-.106.847-.635v-.53q0-.75-.423-.856h-.424q-.317.106-.74 1.069m-20.245-.963-.741.212v.106q.847.856 6.572.962h.74q.847 0 1.059-.53v-.22q-4.455-.53-7.63-.53m9.958 1.28.424.53q.962 0 .962-1.06h-.539q-.635 0-.847.53m10.18 2.117h-.211l-.318.423v.212h.212l.317-.423Zm-7.1.74-1.27-.105-1.386.106h-1.482v.423l1.482.106 3.079-.212v-.317Zm9.747 3.503h-.212l-.424.318v.317h.636l.105-.317Zm32.762-48.446 2.964.846h.952q6.043 2.964 11.239 7.101 5.407 4.667 5.407 6.996h-.211q-.847-1.482-1.694-1.482h-.106q-.317 0-.317.423.423 1.164 1.905 4.032h.212q.211 0 .529-1.059h.106q.317.106.74 3.07l.953 2.117-.212 1.385.318 3.81q-.741 2.656-1.376 6.996-.423 2.02-9.853 15.058-4.243 4.022-8.275 4.022-3.704.423-8.37.423h-2.012q-1.809 0-9.439-3.07-9.65-8.582-9.65-13.143-1.377-2.867-2.33-5.301 0-1.376 2.868-9.112 0-4.879 2.329-6.793 4.984-10.7 12.614-13.885 6.678-2.434 10.71-2.434m-19.081 33.282v.635q1.482 2.867 3.281 6.148 0 1.059 4.032 2.974 1.905 2.222 7.1 3.492l1.906.212q4.666-.953 6.995-2.01l3.82-3.176q5.936-6.37 5.725-10.71v-.952q-.635-1.703-.635-5.513 0-2.973.423-4.667 0-.74-4.137-3.714-2.964-4.234-6.149-5.186h-1.27q-12.403.529-12.403 2.01-2.751 2.753-3.82 5.408-3.386 3.599-3.386 4.773-.953 4.34-1.482 10.276m3.281-25.652-.318.53v.422q.635 0 6.466-4.454l.847-.318.635.106q7.11-.741 7.11-1.376v-.106l-1.702-.317q-7.207 0-13.038 5.513m8.265 2.223v.105l.212.318h1.491l7.525-1.694v-.211l-2.011-.424q-7.217.847-7.217 1.906m-16.636 26.402-.423.318v.74q.211 3.6 2.01 4.023l.106-.106v-.106q-.74-4.869-1.693-4.869m16.425-30.001v.53q8.274-.953 8.274-1.27l-.846-.318h-.106q-5.09 0-7.322 1.058m9.015-4.032q.53 1.482 2.329 1.482l1.058.106.212-.106v-.529q0-1.164-2.223-1.376-1.376.106-1.376.423m-19.292 44.733h-.74v.423q1.375 1.386 4.974 1.386h1.174q-.53-.741-5.408-1.81m17.493 3.926v.212q0 .318 1.588.53 1.799 0 1.799-.53v-.212q-.106-.423-.741-.846h-.953q-1.164 0-1.693.846m20.139-20.138q.106 3.175.529 3.387h.212q0-1.165.952-2.54v-.318l-1.164-1.588h-.212q-.211 0-.317 1.059m-6.995-18.234h-.424q.635 1.376 3.07 2.329h.423l.317-.318v-.106q-1.799-1.905-3.386-1.905m-2.339-3.29v.211q.318 1.28 2.974 2.656h.317l.212-.318v-.106q-.53-.74-3.503-2.443m-6.995-3.493-.211.106q2.01 1.587 3.184 1.587l.106-.211v-.106q-1.703-1.376-3.079-1.376m-14.096 42.615v.318q0 .635 2.964.635l.106-.106v-.212q-1.376-.635-3.07-.635m19.715-43.78h-.211l-.318.318q1.165 1.482 2.329 1.482 0-1.164-1.8-1.8m-26.075 10.912v.74h.318q1.375-1.27 1.375-2.01v-.106h-.529q-.635.423-1.164 1.376m23.959-4.869q.635 1.058 1.481 1.058l.106-.211v-.212q0-.962-.846-.962-.741.106-.741.327m10.276 27.875v.106q.856 0 1.491-1.694v-.211h-.317q-.635 0-1.174 1.799m-32.012-28.52q.952 0 1.809-1.27v-.317q-1.81.529-1.81 1.587m33.822 24.7-.106 1.915h.53l.423.317q.105-1.703-.53-1.482h-.211Zm-13.673 16.963h.106q1.905-.635 1.905-1.058l-.212-.212q-1.481.53-1.799 1.27m-25.45-8.37-.423.211v.212l.846.846h.433q0-.74-.856-1.27m7.216 6.572v.106h1.376l.212-.212-.212-.317h-.211q-1.059 0-1.165.423m34.447-26.605h-.106l-.317.318v.423l.317.424.423-.424v-.423Zm-44.944-3.396q.53 0 .953-.741v-.212q-.953 0-.953.953m-3.185 11.45h-.106l-.211.318q.105.952.317.952l.212-.106v-.529Zm28.202-24.488v.106l1.058-.847-.211-.106q-1.059.635-.847.847m-22.9 9.43h.106q.423-.106.423-.847h-.212q-.317.212-.317.847m.74 12.72h-.105l-.424.433v.212h.318l.212-.318Zm6.15-15.79v-.211h-.424v.423h.211Zm75.695-39.748.106.106v.106l-.318.317q.106.424.847.424h.212l.211-.318-.423-.53.212-.105h4.127q3.714 0 3.714 2.223l.318.423h.317l.318-.212v-.211l-.318-.847.106-.212h.212q2.656 0 2.656 5.725 0 12.826 1.481 18.975h.424l6.572-.318q12.085.741 12.085 2.117.423 0 4.137 3.29 6.033 5.081 7.736 9.96 1.905 2.116 1.905 11.555l.106 3.176q-3.175 6.581-3.175 7.851 0 3.81-8.487 10.065-1.164 2.655-12.932 2.761-5.195-.952-7.206-.952h-2.435q-1.809 0-1.809 1.481l-2.222 2.858q-1.8.53-2.868.53-1.27 0-5.186-2.012v-.317q.741-.847.741-1.694v-.423l-.317-1.915.211-1.482v-1.905l-.423-2.116q1.27-6.9 1.27-9.334l.317-1.058-.211-1.376.952-7.534v-.423q0-2.752-1.376-17.166v-.212l-.211-.105.211-.751v-.423q.424-6.466.424-11.874v-7.948l-.106-.635h-.212q-4.031 2.117-5.83 2.117-1.27 0-1.588-5.725 0-.423.635-1.164v-.318h-.212l-.317.106-.106-.106q0-4.022.846-4.022 1.165-.423 4.879-.423m8.688.212.106-.106h.53v.317l-.53.106-.106-.106Zm-5.725 1.693v-.106h-.317v.106Zm2.435-.106h-.424l-.317.318v.106h.74Zm-9.112.318h-1.165v.106q0 .317 2.223.846 2.223-.105 2.223-.529v-.106q-1.27-.317-3.281-.317m10.391 1.376h-.317l-.539.53v1.693l.327.211q.847-.529.847-1.693 0-.635-.318-.741m-4.349 2.01.424.318h1.164l.423-.529v-.53l-.423-.317q-1.588 0-1.588 1.059m-5.407-.953h-.212l-.106.635v.963q0 .423 1.059.529 1.481 0 1.693-.962-1.482-1.165-2.434-1.165m4.243.635-.317-.317h-.847v.211l.317.424h.847Zm4.763 8.275q.327 2.329.856 2.329h.106v-.212q-.212-2.434-.74-2.434-.222 0-.222.317m21.948 14.731-.53-.529h-.846v.212q.317.635 1.27.635h.106Zm-9.112.635.317.318h.635l.953-.318v-.529l-.53-.106q-.846 0-1.375.635m-4.773 3.08v.423h.212q2.646-.424 2.646-.847v-.317h-.212q-1.164 0-2.646.74m16.636-.423h-.423q0 1.058 3.079 1.905 2.117 2.858 3.07 2.858v-.106q-.636-2.223-1.906-3.07-2.857-1.587-3.82-1.587m-19.715 21.091q0 2.54.212 4.879l-.106 2.646v4.772q0 1.376 4.984 2.858 1.164.433 4.032.433 5.301 0 13.249-3.397 2.54-2.01 5.725-8.477l.635-2.655q0-5.408-3.29-11.345-.741-3.28-3.493-5.83l-4.773-3.387q-7.418 0-15.366 3.175-.856 0-1.174 7.534-.635 3.704-.635 8.794m32.869-11.026h-.212v.423q0 .74.74.74h.107v-.105q0-.74-.635-1.058m-3.397 3.079-.212-.318h-.317v.318l.317.211h.212Zm.53 21.938v.105q1.481 0 2.116-4.762h-.74q-.424 0-1.165 3.916-.212 0-.212.74m-2.646-1.799v.106l.318.212q1.164-.53 1.164-1.164l-.318-.318h-.317q-.847.53-.847 1.164m-7.534 2.54v.318l.327.106h.212q1.376 0 1.376-.53l-.318-.423h-.635q-.74 0-.962.53m-18.868-.106v.105q.105.424.75.424v-.106q-.106-.423-.75-.423m-3.917.105-.211.318v.645l.211.317h.106l.318-.317v-.106q0-.75-.424-.857m26.076 2.974v.317q3.396-.952 3.714-1.587v-.212q-.962 0-3.714 1.482m-32.012.211-.106-.423h-.318v.423l.318.106h.106Zm27.98.318h-1.058l-.212.212v.317h.953l.317-.423Zm-8.9 1.8.212.105h1.058q2.55-.212 2.867-.74v-.318h-.317q-2.656 0-3.82.952m-8.689-.317h-.75v.211q0 .424 1.809.635h.212v-.423q0-.212-1.27-.423m-5.726 1.905.318.115q.952-.539.952-.962h-.529q-.74 0-.74.847m-1.704.327-.423-.539-.53.212v.327l.53.423h.423Zm25.017.847v-.318h-.317v.318Zm48.34-48.764 2.974.846h.953q6.042 2.964 11.238 7.101 5.398 4.667 5.398 6.996h-.212q-.846-1.482-1.693-1.482h-.106q-.318 0-.318.423.424 1.164 1.906 4.032h.211q.212 0 .54-1.059h.105q.317.106.74 3.07l.953 2.117-.211 1.385.317 3.81q-.74 2.656-1.376 6.996-.423 2.02-9.862 15.058-4.243 4.022-8.265 4.022-3.714.423-8.381.423h-2.011q-1.8 0-9.43-3.07-9.65-8.582-9.65-13.143-1.376-2.867-2.329-5.301 0-1.376 2.858-9.112 0-4.879 2.328-6.793 4.984-10.7 12.615-13.885 6.687-2.434 10.709-2.434m-19.08 33.282v.635q1.481 2.867 3.29 6.148 0 1.059 4.022 2.974 1.915 2.222 7.101 3.492l1.915.212q4.657-.953 6.995-2.01l3.81-3.176q5.937-6.37 5.725-10.71v-.952q-.635-1.703-.635-5.513 0-2.973.424-4.667 0-.74-4.128-3.714-2.973-4.234-6.148-5.186h-1.27q-12.413.529-12.413 2.01-2.752 2.753-3.81 5.408-3.397 3.599-3.397 4.773-.952 4.34-1.481 10.276m3.29-25.652-.317.53v.422q.635 0 6.466-4.454l.846-.318.635.106q7.101-.741 7.101-1.376v-.106l-1.693-.317q-7.207 0-13.038 5.513m8.266 2.223v.105l.211.318h1.482l7.524-1.694v-.211l-2.01-.424q-7.207.847-7.207 1.906m-16.646 26.402-.424.318v.74q.212 3.6 2.02 4.023l.107-.106v-.106q-.75-4.869-1.703-4.869m16.434-30.001v.53q8.265-.953 8.265-1.27l-.847-.318h-.105q-5.09 0-7.313 1.058m9.006-4.032q.53 1.482 2.338 1.482l1.059.106.211-.106v-.529q0-1.164-2.222-1.376-1.386.106-1.386.423m-19.292 44.733h-.74v.423q1.375 1.386 4.983 1.386h1.165q-.53-.741-5.408-1.81m17.493 3.926v.212q0 .318 1.587.53 1.81 0 1.81-.53v-.212q-.107-.423-.742-.846h-.962q-1.164 0-1.693.846m20.138-20.138q.106 3.175.53 3.387h.211q0-1.165.962-2.54v-.318l-1.173-1.588h-.212q-.212 0-.318 1.059m-6.995-18.234h-.423q.635 1.376 3.079 2.329h.423l.318-.318v-.106q-1.81-1.905-3.397-1.905m-2.328-3.29v.211q.317 1.28 2.963 2.656h.318l.211-.318v-.106q-.529-.74-3.492-2.443m-6.995-3.493-.212.106q2.01 1.587 3.175 1.587l.106-.211v-.106q-1.693-1.376-3.07-1.376m-14.105 42.615v.318q0 .635 2.973.635l.106-.106v-.212q-1.376-.635-3.08-.635m19.726-43.78h-.212l-.317.318q1.164 1.482 2.328 1.482 0-1.164-1.8-1.8m-26.084 10.912v.74h.317q1.386-1.27 1.386-2.01v-.106h-.53q-.644.423-1.173 1.376m23.958-4.869q.635 1.058 1.492 1.058l.106-.211v-.212q0-.962-.857-.962-.74.106-.74.327m10.285 27.875v.106q.847 0 1.482-1.694v-.211h-.318q-.635 0-1.164 1.799m-32.012-28.52q.953 0 1.8-1.27v-.317q-1.8.529-1.8 1.587m33.811 24.7-.105 1.915h.529l.423.317q.106-1.703-.529-1.482h-.212Zm-13.672 16.963h.106q1.905-.635 1.905-1.058l-.212-.212q-1.482.53-1.8 1.27m-25.44-8.37-.423.211v.212l.847.846h.423q0-.74-.847-1.27m7.207 6.572v.106h1.376l.212-.212-.212-.317h-.212q-1.058 0-1.164.423m34.456-26.605h-.106l-.317.318v.423l.317.424.424-.424v-.423Zm-44.953-3.396q.529 0 .962-.741v-.212q-.962 0-.962.953m-3.176 11.45h-.105l-.212.318q.106.952.317.952l.212-.106v-.529Zm28.193-24.488v.106l1.068-.847-.212-.106q-1.068.635-.856.847m-22.89 9.43h.105q.423-.106.423-.847h-.211q-.318.212-.318.847m.741 12.72h-.106l-.423.433v.212h.317l.212-.318Zm6.148-15.79v-.211h-.423v.423h.212Zm67.95-13.143 2.964.846h.953q6.042 2.964 11.238 7.101 5.408 4.667 5.408 6.996h-.212q-.847-1.482-1.694-1.482h-.105q-.318 0-.318.423.423 1.164 1.905 4.032h.212q.212 0 .529-1.059h.106q.317.106.74 3.07l.953 2.117-.211 1.385.317 3.81q-.74 2.656-1.376 6.996-.423 2.02-9.853 15.058-4.243 4.022-8.274 4.022-3.705.423-8.372.423h-2.01q-1.81 0-9.44-3.07-9.64-8.582-9.64-13.143-1.386-2.867-2.339-5.301 0-1.376 2.867-9.112 0-4.879 2.329-6.793 4.984-10.7 12.614-13.885 6.678-2.434 10.71-2.434m-19.08 33.282v.635q1.481 2.867 3.28 6.148 0 1.059 4.032 2.974 1.905 2.222 7.1 3.492l1.906.212q4.667-.953 6.995-2.01l3.82-3.176q5.937-6.37 5.725-10.71v-.952q-.635-1.703-.635-5.513 0-2.973.423-4.667 0-.74-4.137-3.714-2.964-4.234-6.148-5.186h-1.27q-12.403.529-12.403 2.01-2.752 2.753-3.81 5.408-3.397 3.599-3.397 4.773-.953 4.34-1.482 10.276m3.281-25.652-.317.53v.422q.635 0 6.466-4.454l.846-.318.635.106q7.111-.741 7.111-1.376v-.106l-1.703-.317q-7.207 0-13.038 5.513m8.275 2.223v.105l.212.318h1.482l7.524-1.694v-.211l-2.011-.424q-7.207.847-7.207 1.906m-16.646 26.402-.423.318v.74q.211 3.6 2.01 4.023l.107-.106v-.106q-.741-4.869-1.694-4.869m16.434-30.001v.53q8.266-.953 8.266-1.27l-.847-.318h-.106q-5.09 0-7.313 1.058m9.007-4.032q.529 1.482 2.328 1.482l1.068.106.212-.106v-.529q0-1.164-2.233-1.376-1.375.106-1.375.423m-19.292 44.733h-.741v.423q1.376 1.386 4.984 1.386h1.164q-.53-.741-5.407-1.81m17.492 3.926v.212q0 .318 1.588.53 1.8 0 1.8-.53v-.212q-.107-.423-.742-.846h-.952q-1.165 0-1.694.846m20.139-20.138q.106 3.175.53 3.387h.21q0-1.165.953-2.54v-.318l-1.164-1.588h-.212q-.211 0-.317 1.059m-6.995-18.234h-.424q.635 1.376 3.07 2.329h.423l.318-.318v-.106q-1.8-1.905-3.387-1.905m-2.338-3.29v.211q.327 1.28 2.973 2.656h.317l.212-.318v-.106q-.53-.74-3.502-2.443m-6.995-3.493-.212.106q2.02 1.587 3.185 1.587l.106-.211v-.106q-1.694-1.376-3.08-1.376m-14.096 42.615v.318q0 .635 2.974.635l.105-.106v-.212q-1.385-.635-3.079-.635m19.716-43.78h-.212l-.317.318q1.164 1.482 2.338 1.482 0-1.164-1.81-1.8m-26.075 10.912v.74h.318q1.376-1.27 1.376-2.01v-.106h-.53q-.634.423-1.164 1.376m23.959-4.869q.635 1.058 1.482 1.058l.106-.211v-.212q0-.962-.847-.962-.741.106-.741.327m10.286 27.875v.106q.846 0 1.482-1.694v-.211h-.318q-.635 0-1.164 1.799m-32.022-28.52q.962 0 1.809-1.27v-.317q-1.809.529-1.809 1.587m33.821 24.7-.106 1.915h.53l.423.317q.106-1.703-.53-1.482h-.211Zm-13.673 16.963h.106q1.905-.635 1.905-1.058l-.211-.212q-1.482.53-1.8 1.27m-25.44-8.37-.433.211v.212l.856.846h.424q0-.74-.847-1.27m7.207 6.572v.106h1.376l.211-.212-.211-.317h-.212q-1.058 0-1.164.423m34.446-26.605h-.106l-.317.318v.423l.317.424.424-.424v-.423Zm-44.944-3.396q.53 0 .953-.741v-.212q-.953 0-.953.953m-3.185 11.45h-.105l-.212.318q.106.952.317.952l.222-.106v-.529Zm28.202-24.488v.106l1.059-.847-.212-.106q-1.058.635-.847.847m-22.9 9.43h.106q.423-.106.423-.847h-.211q-.318.212-.318.847m.74 12.72h-.105l-.423.433v.212h.317l.212-.318Zm6.15-15.79v-.211h-.424v.423h.212Zm39.228-42.51v-.423l.635-.106h.847q9.333 1.059 11.026 2.646.741 0 1.376 4.138l-.529.952v.318q1.164 1.386 1.588 13.355 0 21.101 1.164 27.25h.423q5.725-4.667 17.705-12.827.952 0 1.597-9.439 0-2.222 2.117-2.222l4.243-.318q9.535 0 11.44 2.011v.212l-.317.317q-1.905-.74-2.964-.74l-.317.423v.106q0 .635 3.07.952.846 0 .846 4.984 0 2.011-1.588 2.011-.423 0-1.587 1.492l-.318.106-2.116-.106h-.424q0 1.164-2.444 2.328-.423 0-.423.53l.423.74-10.18 6.996-.106.317q.106.645 10.498 21.524 1.482 3.07 1.905 4.879h-.635l-.635-.635h-.318q0 1.27 4.032 1.27 7.101 0 7.101 1.27l-.847 1.058q1.376 2.338 1.376 6.89 0 1.49-1.482 1.49l-.952.107q-2.55-.424-12.403-.424h-.635q-1.28 0-1.915-3.29-.635-5.514-2.116-10.075-2.435-5.513-7.101-14.73-1.81-5.302-2.762-5.302-1.8.211-5.725 3.29-1.376 1.165-2.011 1.165-.635-.212-.635-.424v-.106l.317-.529v-.106h-.635q-.635 0-1.375 2.858l.105.635q-.846.53-.846 1.809l.211 11.335q0 1.385 4.551 1.809.741.635 3.291 1.481l.424 1.059-.106 1.587v1.174l.317 1.482v.212q-.423.846-1.587 1.376l-.106-.106h-.635v.423q0 .741 1.481 1.27v.212q0 .317-1.27.53l-4.984-1.271q-10.286-.53-13.355-1.164l-1.491.317q-1.376-.635-1.376-3.396v-.635l-.106-.106q0-1.8 1.587-2.964h.433v1.588l.424.423h1.376l-.424-.529v-.317l.847-.106h1.059l-1.27-1.27 1.481-.318v-.317q-.106-.318-1.058-.318h-.424l-2.222.318v-.212q0-.741 4.763-1.491 1.164-.318 3.608-.636l.317-.423v-.106q0-.211-1.481-.211-.847 0-.847-9.112-.645-11.027-2.02-15.165-.636-26.392-1.694-31.482 0-.318-3.714-.636l-3.07.741q-1.164-1.164-1.27-1.905l-.211-6.572-.106-.423q.211-1.588.423-1.588l1.164.212v-.212q0-.423-.846-1.597v-.529q.846 0 .846-.318Zm9.853 5.62v.211q.423 1.059 1.28 1.059.74-.847.74-1.905l-.423-.106q-1.174 0-1.597.74m-6.678 1.694v.212q0 .423 1.597.74v.213q-2.02.105-2.02.644v.424l.317.317h1.059q1.597 0 2.338-1.915l.423-.423q0-.635-2.55-.635h-.423q-.74.106-.74.423m8.38 9.334-.212.423v2.117q0 2.55.53 2.55h.105l.318-.318v-1.491q-.106-3.281-.741-3.281m28.192 7.418-.212-.212-.635.106v.318l.106.317h.53l.211-.317Zm-2.752 5.937q.106 1.376.424 1.376h.74q.318 0 .318-.424l-.53-1.27.53-1.905v-.317h-.212q-1.27.635-1.27 2.54m9.641.846q0 .318 3.397.53 1.164-.212 1.164-.53v-.423h-2.857q-1.704 0-1.704.423m-34.658 1.482-.423-.317h-.212v.529l.212.212Zm24.594 0 .423.424h.106q.847 0 .953-.424v-.317h-.424q-.846 0-1.058.317m-1.059 4.879v.105h.106q.424 0 3.281-1.905 1.059-.106 1.059-.635v-.423h-.635q-1.27 0-3.81 2.858m-.222 4.666v.318h.221q3.917-1.059 9.96-6.149l.21-.423h-.21q-5.303 1.905-10.18 6.254m-18.225 7.736v.318h.424q1.376 0 2.328-1.27v-.318q-1.482 0-2.752 1.27m12.826-.211q.741 2.01 1.588 2.01h.106v-.105q-.106-2.329-1.376-2.329-.318 0-.318.424m-15.481.317h-.212l-.318.53v.105h.318l.212-.317Zm6.995 2.329v.22h.211q2.127-.855 3.714-2.337v-.212q-3.925 1.694-3.925 2.329m-7.419 3.079v.952l.212.212h.317q.53-.212.53-1.164v-.212q0-1.164-.424-2.329h-.106q-.529 0-.529 2.54m19.927-.105h-.317v.106q1.058 4.031 3.82 8.9h.529v-.318q0-2.222-4.032-8.688m-20.033 4.243v1.482l.318.212q.847 0 .847-1.059v-1.703l-.212-.212h-.318q-.635.106-.635 1.28m25.864-.212-.212-.211h-.317v.211l.423.424h.106Zm-24.7 4.87v-.636h-.423l-.106.635v1.068h.106q.424-.106.424-1.068m23.535 1.28h-.318v.211q.847 2.646 1.8 3.282h.423q0-.847-1.905-3.493m-24.594 4.445.53.53h.105q.53-.212.53-.847 0-.741-.318-.741-.847.529-.847 1.058m28.625 2.55v.212l.318.423h.847l.423-.423q-.317-.635-.952-.635-.636.105-.636.423m-17.81 2.117-.211-.212h-.318v.212l.423.317h.106Zm-4.137 1.058q.74 1.376 2.223 1.376h.105l.328-.317q-.433-1.27-1.069-1.694h-.423q-.847 0-1.164.635m35.303 0-.318-.212h-.317v.53l.317.211h.318Zm-41.98.318-.212-.318h-.212v.318Zm3.607 0-.317-.318-.212.318Zm-11.767.952v.106l.106.212v.115l4.984.106h.635q3.387 0 3.387-.539v-.211q0-.212-2.329-.318-5.936.212-6.783.53m43.885-.212h-.74l-.318.317.53.433h.423l.423-.433Zm2.117.962v-.433h-1.058v.115l.53.318Zm3.82 1.164v1.8h.106q.423 0 .423-2.223v-.741q-.529.211-.529 1.164m-37.42-1.058-.317.211v.318l1.588.106h.635v-.106q0-.53-1.905-.53m-4.35.847h-4.666l-.318.212 11.45 1.588v-.318q0-1.482-6.466-1.482m7.948 1.376-.423.106v.212l.211.317h.847l.212-.317q-.106-.318-.847-.318m26.297 2.223v.106h.423l2.223.211 2.54-.211h.318l.317-.212v-.106l-.635-.106h-4.128q-1.058 0-1.058.318" font-family="Love Ya Like A Sister" font-size="112.815"/><path fill="transparent" stroke="transparent" d="M485.5 0h529v218h-529z"/></g></svg>